<svg width="14" height="9" viewBox="0 0 14 9" fill="none" xmlns="http://www.w3.org/2000/svg">
<path d="M11.59 0.589998L7 5.17L2.41 0.589998L1 2L7 8L13 2L11.59 0.589998Z" fill="white" fill-opacity="0.8"/>
<path d="M2.55127 0.448423C2.47314 0.370463 2.34662 0.370532 2.26858 0.448577L0.858579 1.85858C0.780474 1.93668 0.780474 2.06331 0.858579 2.14142L6.85858 8.14142C6.89609 8.17893 6.94696 8.2 7 8.2C7.05304 8.2 7.10391 8.17893 7.14142 8.14142L13.1414 2.14142C13.2195 2.06331 13.2195 1.93668 13.1414 1.85858L11.7314 0.448577C11.6534 0.370532 11.5269 0.370463 11.4487 0.448423L7 4.88746L2.55127 0.448423Z" stroke="white" stroke-opacity="0.8" stroke-width="0.4" stroke-linejoin="round"/>
</svg>
