<svg width="12" height="12" viewBox="0 0 12 12" fill="none" xmlns="http://www.w3.org/2000/svg">
<path d="M5.3 11C5.3 11.3866 5.6134 11.7 6 11.7C6.3866 11.7 6.7 11.3866 6.7 11H5.3ZM6.49497 0.505025C6.22161 0.231658 5.77839 0.231658 5.50503 0.505025L1.05025 4.9598C0.776886 5.23316 0.776886 5.67638 1.05025 5.94975C1.32362 6.22311 1.76684 6.22311 2.0402 5.94975L6 1.98995L9.9598 5.94975C10.2332 6.22311 10.6764 6.22311 10.9497 5.94975C11.2231 5.67638 11.2231 5.23316 10.9497 4.9598L6.49497 0.505025ZM6.7 11L6.7 1H5.3L5.3 11H6.7Z" fill="#36B37E"/>
</svg>
