<svg width="24" height="24" viewBox="0 0 24 24" fill="none" xmlns="http://www.w3.org/2000/svg">
<path d="M8.58359 7.02871V7.12871H8.68359H10.0281H10.1281V7.02871V5.35325H13.8721V7.02871V7.12871H13.9721H15.3166H15.4166V7.02871V5.04437C15.4166 4.40677 14.8625 3.9 14.1962 3.9H9.80403C9.13772 3.9 8.58359 4.40677 8.58359 5.04437V7.02871Z" fill="#FF6930" stroke="#FF6930" stroke-width="0.2"/>
<path d="M4 6.3021H3.9V6.4021V7.65535V7.75535H4H5.30945L6.34002 19.4371L6.34008 19.4377C6.37592 19.8182 6.71501 20.1 7.10922 20.1H16.8681C17.2623 20.1 17.6017 19.818 17.6373 19.4374L17.6373 19.4369L18.6679 7.75535H20H20.1V7.65535V6.4021V6.3021H20H4ZM17.1175 7.75535L16.1607 18.6467H7.81643L6.85987 7.75535H17.1175Z" fill="#FF6930" stroke="#FF6930" stroke-width="0.2"/>
</svg>
