<svg width="24" height="24" viewBox="0 0 24 24" fill="none" xmlns="http://www.w3.org/2000/svg">
<path d="M14.7132 4.9576L14.7137 4.95708C15.5982 4.07414 17.0305 4.07414 17.915 4.95708L19.0336 6.07149L19.0339 6.07186C19.9169 6.95625 19.9169 8.38861 19.034 9.27311L19.0338 9.27324L10.5371 17.7699C10.5281 17.7812 10.5192 17.79 10.5121 17.7965C10.5052 17.8038 10.4986 17.8098 10.4929 17.8144L10.4882 17.8193L10.4731 17.8293L10.4684 17.8332L10.468 17.8336C10.4652 17.8359 10.4604 17.8399 10.4553 17.8439C10.4498 17.8482 10.4423 17.8539 10.4332 17.86C10.4331 17.86 10.433 17.8601 10.4328 17.8602L10.3223 17.6935C10.3162 17.6976 10.3091 17.7017 10.302 17.7058C10.2947 17.71 10.2873 17.7143 10.2811 17.7185L14.7132 4.9576ZM14.7132 4.9576L13.9829 5.69181L13.9825 5.69223L6.23908 13.4316H6.21499L6.15767 13.5175L6.15407 13.5219L6.15376 13.5223C6.15136 13.5251 6.14722 13.5301 6.14298 13.5355C6.13846 13.5412 6.13236 13.5492 6.12602 13.5589L6.09659 13.6037L6.08486 13.6158L6.07044 13.6591C6.07049 13.6589 6.07047 13.6591 6.06847 13.6641C6.06778 13.6658 6.06678 13.6682 6.06558 13.6713C6.0598 13.6827 6.05475 13.6954 6.05095 13.7093L4.32885 18.8879C4.32874 18.8882 4.32863 18.8885 4.32852 18.8889C4.2535 19.109 4.31097 19.3527 4.47662 19.516C4.59223 19.6301 4.74831 19.6941 4.91093 19.6935L4.91093 19.6935L4.91369 19.6935C4.97697 19.6924 5.03963 19.6825 5.10001 19.6644L5.10003 19.6644L5.10562 19.6626L10.2764 17.9376C10.2893 17.9346 10.3036 17.9299 10.3186 17.9226C10.3205 17.9217 10.3223 17.9208 10.3241 17.9199C10.3352 17.9154 10.3463 17.9102 10.3572 17.9045C10.3707 17.8985 10.3833 17.8913 10.3949 17.8831L14.7132 4.9576ZM6.1894 13.4835C6.17202 13.4995 6.16229 13.5143 6.15939 13.5187L6.15932 13.5188C6.15899 13.5193 6.15867 13.5198 6.15837 13.5202L6.16054 13.5168C6.1658 13.5088 6.17483 13.496 6.18833 13.4824L6.1894 13.4835ZM6.1894 13.4835L6.32203 13.6151L6.3303 13.6233L6.32203 13.615L6.1894 13.4835ZM10.493 17.8122C10.4919 17.813 10.4915 17.8133 10.492 17.8129L10.4928 17.8123L10.493 17.8122ZM10.4747 17.8279C10.4724 17.8296 10.4708 17.8306 10.4706 17.8308C10.4703 17.8309 10.4715 17.8301 10.4747 17.8279ZM18.1688 8.41259L18.1683 8.41307L17.8721 8.71207L15.2823 6.1223L15.5827 5.82211C15.5827 5.8221 15.5827 5.8221 15.5827 5.82209C15.988 5.41719 16.6449 5.41717 17.0503 5.82213L18.1721 6.944C18.1723 6.94414 18.1724 6.94428 18.1726 6.94442C18.5747 7.35184 18.573 8.00733 18.1688 8.41259ZM6.15187 13.5292L6.1516 13.5294L6.15187 13.5292ZM17.0037 9.58172L10.0953 16.4901L7.50493 13.8999L14.4133 6.99149L17.0037 9.58172ZM5.87498 18.1122L6.90454 15.0336L8.95711 17.086L5.87498 18.1122Z" fill="#8492A6" stroke="#8492A6" stroke-width="0.4"/>
</svg>
