<svg width="23" height="23" viewBox="0 0 23 23" fill="none"
     xmlns="http://www.w3.org/2000/svg">
  <path d="M4 11.9067C6.5 8.20399 13.2 3.0202 20 11.9067C17.5 15.9459 10 20.9951 4 11.9067Z" stroke="#4F60FD"/>
  <path fill-rule="evenodd" clip-rule="evenodd"
        d="M10.2456 11.8931C11.3502 11.8931 12.2456 10.9976 12.2456 9.89307C12.2456 9.30091 11.9883 8.76887 11.5793 8.40266C11.7301 8.38264 11.8839 8.37231 12.04 8.37231C13.973 8.37231 15.54 9.95472 15.54 11.9067C15.54 13.8587 13.973 15.4411 12.04 15.4411C10.107 15.4411 8.54004 13.8587 8.54004 11.9067C8.54004 11.6222 8.57332 11.3456 8.63616 11.0806C9.00043 11.5735 9.58569 11.8931 10.2456 11.8931Z"
        fill="#4F60FD"/>
</svg>
