<svg width="16" height="16" viewBox="0 0 16 16" fill="none" xmlns="http://www.w3.org/2000/svg">
<path d="M13.6569 2.34313C12.1458 0.832156 10.1369 0 8 0C5.86312 0 3.85416 0.832156 2.34313 2.34313C0.832156 3.85416 0 5.86312 0 8C0 10.1369 0.832156 12.1458 2.34313 13.6569C3.85416 15.1678 5.86312 16 8 16C10.1369 16 12.1458 15.1678 13.6569 13.6569C15.1678 12.1458 16 10.1369 16 8C16 5.86312 15.1678 3.85416 13.6569 2.34313ZM8 15.0625C4.10572 15.0625 0.9375 11.8943 0.9375 8C0.9375 4.10572 4.10572 0.9375 8 0.9375C11.8943 0.9375 15.0625 4.10572 15.0625 8C15.0625 11.8943 11.8943 15.0625 8 15.0625Z" fill="#8492A6"/>
<path d="M8 2.5C7.05228 2.5 6.28125 3.27103 6.28125 4.21875C6.28125 5.16647 7.05228 5.9375 8 5.9375C8.94772 5.9375 9.71875 5.16647 9.71875 4.21875C9.71875 3.27103 8.94772 2.5 8 2.5ZM8 5C7.56922 5 7.21875 4.64953 7.21875 4.21875C7.21875 3.78797 7.56922 3.4375 8 3.4375C8.43078 3.4375 8.78125 3.78797 8.78125 4.21875C8.78125 4.64953 8.43078 5 8 5Z" fill="#8492A6"/>
<path d="M9.5625 12.5V6.875H5.8125V7.8125H6.4375V12.5H5.8125V13.4375H10.1875V12.5H9.5625ZM8.625 12.5H7.375V7.8125H8.625V12.5Z" fill="#8492A6"/>
</svg>
