<svg width="14" height="12" viewBox="0 0 14 12" fill="none" xmlns="http://www.w3.org/2000/svg">
<path d="M8.3162 10.2857C8.44372 10.2857 8.54392 10.3304 8.61679 10.4196C8.70787 10.4911 8.75342 10.5893 8.75342 10.7143V11.5714C8.75342 11.6964 8.70787 11.7946 8.61679 11.8661C8.54392 11.9554 8.44372 12 8.3162 12H6.56734C6.43982 12 6.33051 11.9554 6.23943 11.8661C6.16656 11.7946 6.13012 11.6964 6.13012 11.5714V10.7143C6.13012 10.5893 6.16656 10.4911 6.23943 10.4196C6.33051 10.3304 6.43982 10.2857 6.56734 10.2857H8.3162ZM0.446324 3.42857C0.245934 3.42857 0.109304 3.33929 0.0364346 3.16071C-0.0364346 2.98214 0 2.83036 0.145738 2.70536L2.33182 0.133929C2.40468 0.0446429 2.50488 0 2.6324 0C2.75992 0 2.86012 0.0446429 2.93299 0.133929L5.11906 2.70536C5.2648 2.83036 5.30124 2.98214 5.22837 3.16071C5.1555 3.33929 5.01887 3.42857 4.81848 3.42857H3.50683V11.5714C3.50683 11.6964 3.46129 11.7946 3.3702 11.8661C3.29733 11.9554 3.19714 12 3.06962 12H2.19519C2.06766 12 1.95836 11.9554 1.86727 11.8661C1.7944 11.7946 1.75797 11.6964 1.75797 11.5714V3.42857H0.446324ZM11.8139 3.42857C11.9414 3.42857 12.0416 3.47321 12.1145 3.5625C12.2056 3.63393 12.2511 3.73214 12.2511 3.85714V4.71429C12.2511 4.83929 12.2056 4.94643 12.1145 5.03571C12.0416 5.10714 11.9414 5.14286 11.8139 5.14286H6.56734C6.43982 5.14286 6.33051 5.10714 6.23943 5.03571C6.16656 4.94643 6.13012 4.83929 6.13012 4.71429V3.85714C6.13012 3.73214 6.16656 3.63393 6.23943 3.5625C6.33051 3.47321 6.43982 3.42857 6.56734 3.42857H11.8139ZM10.0651 6.85714C10.1926 6.85714 10.2928 6.90179 10.3656 6.99107C10.4567 7.0625 10.5023 7.16071 10.5023 7.28571V8.14286C10.5023 8.26786 10.4567 8.375 10.3656 8.46429C10.2928 8.53571 10.1926 8.57143 10.0651 8.57143H6.56734C6.43982 8.57143 6.33051 8.53571 6.23943 8.46429C6.16656 8.375 6.13012 8.26786 6.13012 8.14286V7.28571C6.13012 7.16071 6.16656 7.0625 6.23943 6.99107C6.33051 6.90179 6.43982 6.85714 6.56734 6.85714H10.0651ZM13.5628 0C13.6903 0 13.7905 0.0446429 13.8634 0.133929C13.9545 0.205357 14 0.303571 14 0.428571V1.28571C14 1.41071 13.9545 1.51786 13.8634 1.60714C13.7905 1.67857 13.6903 1.71429 13.5628 1.71429H6.56734C6.43982 1.71429 6.33051 1.67857 6.23943 1.60714C6.16656 1.51786 6.13012 1.41071 6.13012 1.28571V0.428571C6.13012 0.303571 6.16656 0.205357 6.23943 0.133929C6.33051 0.0446429 6.43982 0 6.56734 0H13.5628Z" fill="#8492A6"/>
</svg>
