<svg width="16" height="16" viewBox="0 0 16 16" fill="none" xmlns="http://www.w3.org/2000/svg">
<path d="M7.36437 2.66663C4.7743 2.66663 2.66699 4.77394 2.66699 7.364C2.66699 9.95421 4.7743 12.0614 7.36437 12.0614C9.95458 12.0614 12.0617 9.95421 12.0617 7.364C12.0617 4.77394 9.95458 2.66663 7.36437 2.66663ZM7.36437 11.1942C5.25243 11.1942 3.5342 9.47596 3.5342 7.36402C3.5342 5.25208 5.25243 3.53383 7.36437 3.53383C9.4763 3.53383 11.1945 5.25206 11.1945 7.364C11.1945 9.47594 9.4763 11.1942 7.36437 11.1942Z" fill="#8492A6"/>
<path d="M13.2066 12.5931L10.7206 10.1071C10.5512 9.93775 10.2769 9.93775 10.1075 10.1071C9.93812 10.2764 9.93812 10.551 10.1075 10.7203L12.5935 13.2063C12.6782 13.291 12.7891 13.3333 12.9001 13.3333C13.0109 13.3333 13.1219 13.291 13.2066 13.2063C13.376 13.037 13.376 12.7624 13.2066 12.5931Z" fill="#8492A6"/>
</svg>
