<svg width="16" height="16" viewBox="0 0 16 16" fill="none" xmlns="http://www.w3.org/2000/svg">
<path d="M15.521 9.754L14.0504 8.604C14.0697 8.42666 14.085 8.21934 14.085 8C14.085 7.78066 14.069 7.57334 14.0504 7.396L15.5224 6.24534C15.7957 6.02934 15.871 5.646 15.6964 5.32669L14.167 2.68069C13.9997 2.37603 13.6244 2.23669 13.2824 2.36269L11.547 3.05934C11.215 2.81934 10.8664 2.61669 10.5057 2.45469L10.2417 0.614031C10.1984 0.264 9.89437 0 9.53503 0H6.46837C6.10903 0 5.80503 0.264 5.76237 0.607344L5.49771 2.45469C5.14837 2.61269 4.80506 2.81203 4.45771 3.06003L2.71771 2.36138C2.38506 2.23138 2.00637 2.36872 1.83971 2.67403L0.308371 5.32403C0.127714 5.62937 0.201714 6.02537 0.481714 6.24669L1.95237 7.39603C1.92903 7.62138 1.91771 7.81669 1.91771 8.00003C1.91771 8.18338 1.92906 8.37869 1.95106 8.60403L0.479058 9.75537C0.206371 9.97134 0.131683 10.3547 0.305683 10.674L1.83503 13.32C2.00103 13.624 2.37568 13.7627 2.71968 13.638L4.45503 12.9413C4.78703 13.1807 5.13637 13.3833 5.49703 13.546L5.76103 15.386C5.80437 15.736 6.10837 16 6.46768 16H9.53434C9.89368 16 10.1977 15.736 10.2403 15.3927L10.505 13.546C10.8543 13.388 11.1977 13.1887 11.545 12.9407L13.285 13.6393C13.6163 13.768 13.9963 13.632 14.163 13.3267L15.7003 10.6673C15.8704 10.3553 15.7957 9.972 15.521 9.754ZM15.1177 10.3407L13.5297 13.0193L11.621 12.2527C11.513 12.2093 11.3904 12.226 11.297 12.2953C10.8837 12.6047 10.4844 12.8373 10.075 13.0047C9.96568 13.0493 9.88768 13.1487 9.87103 13.266L9.53437 15.3333L6.42303 15.298L6.13168 13.2667C6.11434 13.1493 6.03703 13.05 5.92768 13.0053C5.50168 12.8307 5.09168 12.5927 4.70834 12.298C4.649 12.252 4.57699 12.2286 4.50499 12.2286C4.463 12.2286 4.421 12.236 4.38034 12.2526L2.417 12.9933L0.887652 10.3473C0.873652 10.3213 0.876308 10.2913 0.892308 10.2786L2.51031 9.01397C2.60231 8.94197 2.65031 8.82597 2.63565 8.70997C2.60031 8.43062 2.58431 8.20463 2.58431 7.99997C2.58431 7.79531 2.60096 7.56997 2.63565 7.28997C2.65031 7.17331 2.60231 7.05797 2.51031 6.98597L0.884371 5.66L2.47237 2.98134L4.38103 3.748C4.48968 3.792 4.61168 3.77534 4.70568 3.70534C5.11834 3.39534 5.51834 3.16334 5.92768 2.996C6.03703 2.95066 6.11434 2.85134 6.13103 2.73466L6.46837 0.666656L9.58037 0.702656L9.87103 2.73466C9.88837 2.852 9.96568 2.95131 10.075 2.996C10.5004 3.17 10.9104 3.408 11.2944 3.70334C11.3884 3.77534 11.5117 3.79269 11.6217 3.748L13.5851 3.00734L15.1144 5.65334C15.1284 5.67934 15.1257 5.70869 15.1097 5.72134L13.4917 6.986C13.3997 7.058 13.3517 7.17334 13.3664 7.29C13.3917 7.49266 13.4177 7.736 13.4177 8C13.4177 8.26466 13.3917 8.50734 13.3664 8.71C13.3517 8.826 13.3997 8.942 13.4917 9.014L15.1077 10.278C15.125 10.292 15.1284 10.322 15.1177 10.3407Z" fill="white"/>
<path d="M8.00132 4.66663C6.16332 4.66663 4.66797 6.16197 4.66797 7.99998C4.66797 9.83798 6.16332 11.3333 8.00132 11.3333C9.83932 11.3333 11.3347 9.83798 11.3347 7.99998C11.3347 6.16197 9.83932 4.66663 8.00132 4.66663ZM8.00132 10.6666C6.53066 10.6666 5.33466 9.47064 5.33466 7.99998C5.33466 6.52932 6.53066 5.33332 8.00132 5.33332C9.47198 5.33332 10.668 6.52932 10.668 7.99998C10.668 9.47064 9.47198 10.6666 8.00132 10.6666Z" fill="white"/>
</svg>
