<svg width="18" height="18" viewBox="0 0 18 18" fill="none" xmlns="http://www.w3.org/2000/svg">
<path d="M9 0C4.02942 0 0 4.02942 0 9C0 13.9706 4.02942 18 9 18C13.9706 18 18 13.9706 18 9C18 4.02942 13.9706 0 9 0ZM9 1.74194C13.0112 1.74194 16.2581 4.98814 16.2581 9C16.2581 13.0112 13.0119 16.2581 9 16.2581C4.98876 16.2581 1.74194 13.0119 1.74194 9C1.74194 4.98876 4.98814 1.74194 9 1.74194Z" fill="#8492A6"/>
<path d="M14.0885 6.46935L13.2707 5.64491C13.1013 5.47416 12.8256 5.47304 12.6548 5.64244L7.52512 10.7309L5.35525 8.54345C5.18589 8.3727 4.91015 8.37158 4.73941 8.54095L3.91493 9.35879C3.74418 9.52815 3.74306 9.80389 3.91246 9.97467L7.20693 13.2958C7.3763 13.4666 7.65203 13.4677 7.82278 13.2983L14.0861 7.08523C14.2568 6.91583 14.2579 6.6401 14.0885 6.46935Z" fill="#8492A6"/>
</svg>
