<svg width="105" height="24" viewBox="0 0 105 24" fill="none" xmlns="http://www.w3.org/2000/svg">
<path d="M23.3125 20.9531C23.3125 21.2448 23.2604 21.5156 23.1562 21.7656C23.0521 22.0156 22.9062 22.2344 22.7188 22.4219C22.5312 22.599 22.3125 22.7396 22.0625 22.8438C21.8125 22.9479 21.5469 23 21.2656 23H12.1094C11.2448 23 10.3698 22.9062 9.48438 22.7188C8.59896 22.5312 7.73958 22.2448 6.90625 21.8594C6.08333 21.4635 5.30729 20.9635 4.57812 20.3594C3.84896 19.7552 3.20833 19.0417 2.65625 18.2188C2.11458 17.3854 1.6875 16.4375 1.375 15.375C1.0625 14.3021 0.90625 13.1094 0.90625 11.7969V0.59375H4.96875V11.7969C4.96875 12.9427 5.125 13.9115 5.4375 14.7031C5.76042 15.4948 6.16667 16.1562 6.65625 16.6875C7.14583 17.2188 7.68229 17.6354 8.26562 17.9375C8.84896 18.2396 9.40104 18.4635 9.92188 18.6094C10.4531 18.7552 10.9167 18.849 11.3125 18.8906C11.7188 18.9219 11.9844 18.9375 12.1094 18.9375H19.25V0.59375H23.3125V20.9531ZM50.375 9.96875C50.375 10.8958 50.2604 11.724 50.0312 12.4531C49.8021 13.1823 49.4896 13.8281 49.0938 14.3906C48.7083 14.9427 48.2604 15.4167 47.75 15.8125C47.2396 16.2083 46.7031 16.5312 46.1406 16.7812C45.5885 17.0312 45.026 17.2135 44.4531 17.3281C43.8906 17.4427 43.3594 17.5 42.8594 17.5H33.6719V13.4375H42.8594C43.3802 13.3958 43.849 13.2917 44.2656 13.125C44.6927 12.9479 45.0573 12.7135 45.3594 12.4219C45.6615 12.1302 45.8958 11.7812 46.0625 11.375C46.2292 10.9583 46.3125 10.4896 46.3125 9.96875V8.125C46.2604 7.61458 46.151 7.14583 45.9844 6.71875C45.8177 6.29167 45.5885 5.92708 45.2969 5.625C45.0156 5.32292 44.6719 5.08854 44.2656 4.92188C43.8594 4.74479 43.3906 4.65625 42.8594 4.65625H33.7031C33.1615 4.65625 32.75 4.79688 32.4688 5.07812C32.1875 5.35938 32.0469 5.76562 32.0469 6.29688V23H27.9844V6.29688C27.9844 5.25521 28.1719 4.36979 28.5469 3.64062C28.9323 2.91146 29.4062 2.32292 29.9688 1.875C30.5417 1.42708 31.1615 1.10417 31.8281 0.90625C32.4948 0.697917 33.1094 0.59375 33.6719 0.59375H42.8594C43.776 0.59375 44.599 0.713542 45.3281 0.953125C46.0573 1.18229 46.6979 1.49479 47.25 1.89062C47.8125 2.27604 48.2865 2.72396 48.6719 3.23438C49.0677 3.74479 49.3906 4.28125 49.6406 4.84375C49.901 5.39583 50.0885 5.95833 50.2031 6.53125C50.3177 7.09375 50.375 7.625 50.375 8.125V9.96875ZM79.9375 23H75.8438V9.65625L68.6406 22.3281C68.4635 22.651 68.2135 22.8958 67.8906 23.0625C67.5781 23.2292 67.2396 23.3125 66.875 23.3125C66.5208 23.3125 66.1875 23.2292 65.875 23.0625C65.5729 22.8958 65.3333 22.651 65.1562 22.3281L57.9219 9.65625V23H53.8594V2.32812C53.8594 1.85938 53.9948 1.44271 54.2656 1.07812C54.5469 0.713542 54.9115 0.46875 55.3594 0.34375C55.5781 0.291667 55.7969 0.276042 56.0156 0.296875C56.2344 0.307292 56.4427 0.354167 56.6406 0.4375C56.849 0.510417 57.0365 0.619792 57.2031 0.765625C57.3698 0.901042 57.5104 1.06771 57.625 1.26562L66.875 17.3438L76.125 1.26562C76.3646 0.869792 76.6927 0.588542 77.1094 0.421875C77.5365 0.255208 77.9792 0.229167 78.4375 0.34375C78.875 0.46875 79.2344 0.713542 79.5156 1.07812C79.7969 1.44271 79.9375 1.85938 79.9375 2.32812V23ZM103.094 13.8438H90.2656V9.75H103.094V13.8438ZM104.922 23H90.2656C89.7031 23 89.0885 22.901 88.4219 22.7031C87.7552 22.5052 87.1354 22.1823 86.5625 21.7344C86 21.276 85.526 20.6875 85.1406 19.9688C84.7656 19.2396 84.5781 18.349 84.5781 17.2969V2.64062C84.5781 2.35938 84.6302 2.09375 84.7344 1.84375C84.8385 1.59375 84.9792 1.375 85.1562 1.1875C85.3438 1 85.5625 0.854167 85.8125 0.75C86.0625 0.645833 86.3333 0.59375 86.625 0.59375H104.922V4.65625H88.6406V17.2969C88.6406 17.8281 88.7812 18.2344 89.0625 18.5156C89.3438 18.7969 89.7552 18.9375 90.2969 18.9375H104.922V23Z" fill="url(#paint0_linear)"/>
<defs>
<linearGradient id="paint0_linear" x1="57" y1="-9" x2="57" y2="35.2647" gradientUnits="userSpaceOnUse">
<stop stop-color="white"/>
<stop offset="1" stop-color="#35A0F7"/>
</linearGradient>
</defs>
</svg>
