<svg width="16" height="16" viewBox="0 0 16 16" fill="none" xmlns="http://www.w3.org/2000/svg">
<g clip-path="url(#clip0)">
<path d="M9.70779 8.35023L9.7105 8.34647L9.71051 8.34648L13.1942 3.43907C13.1942 3.43898 13.1943 3.4389 13.1944 3.43881C13.3154 3.27028 13.332 3.04811 13.2371 2.86353L9.70779 8.35023ZM9.70779 8.35023L9.70783 8.35026L9.70573 8.35309C9.59188 8.50679 9.53032 8.69296 9.52994 8.88441M9.70779 8.35023L9.52994 8.88441M9.52994 8.88441V12.8853V12.8856H9.42994C9.43068 13.0041 9.38415 13.1179 9.3006 13.202C9.21705 13.2861 9.10347 13.3332 8.98502 13.3332C8.92474 13.3332 8.8652 13.3212 8.80958 13.2981M9.52994 8.88441L6.81921 12.6462M8.80958 13.2981L8.77395 13.3916L8.77267 13.3911C8.77221 13.3909 8.77175 13.3907 8.77129 13.3905L8.80958 13.2981ZM8.80958 13.2981L6.85183 12.5516M6.85183 12.5516L6.82265 12.6473C6.8215 12.6469 6.82036 12.6465 6.81921 12.6462M6.85183 12.5516C6.67638 12.4981 6.55994 12.3326 6.55994 12.1332V8.88421L6.81921 12.6462M6.85183 12.5516L6.8162 12.645L6.81921 12.6462M2.75295 2.86352C2.84677 2.68094 3.03491 2.56628 3.24026 2.56663M2.75295 2.86352L3.24026 2.56663M2.75295 2.86352C2.75295 2.86352 2.75295 2.86352 2.75295 2.86353L2.84189 2.90923L2.75295 2.86352ZM3.24026 2.56663H3.24017V2.66663L3.24036 2.56663C3.24032 2.56663 3.24029 2.56663 3.24026 2.56663ZM3.24026 2.56663H12.7499M3.24026 2.56663H12.7499M12.7499 2.56663C12.9552 2.56628 13.1433 2.68095 13.2371 2.86352L12.7499 2.56663ZM9.108 7.9142L12.3778 3.3081H3.61231L6.88221 7.91421C7.08909 8.19528 7.20095 8.53499 7.20162 8.88402V8.88421V11.9986L8.78847 12.6036L8.78847 8.88421L8.78847 8.88402C8.78914 8.535 8.901 8.19528 9.108 7.9142Z" fill="#8C8C8C" stroke="#8C8C8C" stroke-width="0.2"/>
</g>
<defs>
<clipPath id="clip0">
<rect width="10.6667" height="10.6667" fill="white" transform="matrix(-1 0 0 1 13.333 2.66663)"/>
</clipPath>
</defs>
</svg>
