<svg width="14" height="12" viewBox="0 0 14 12" fill="none" xmlns="http://www.w3.org/2000/svg">
<path d="M4.7197 8.57143C4.91599 8.57143 5.04981 8.66071 5.12119 8.83929C5.19257 9.01786 5.15688 9.16964 5.01413 9.29464L2.87286 11.8661C2.80149 11.9554 2.70335 12 2.57844 12C2.45353 12 2.35539 11.9554 2.28401 11.8661L0.142751 9.29464C0 9.16964 -0.0356877 9.01786 0.0356877 8.83929C0.107063 8.66071 0.240892 8.57143 0.437175 8.57143H1.72193V0.428571C1.72193 0.303571 1.75762 0.205357 1.829 0.133929C1.91822 0.0446429 2.02528 0 2.15019 0H3.00669C3.1316 0 3.22974 0.0446429 3.30112 0.133929C3.39033 0.205357 3.43494 0.303571 3.43494 0.428571V8.57143H4.7197ZM11.1435 6.85714C11.2684 6.85714 11.3665 6.90179 11.4379 6.99107C11.5271 7.0625 11.5717 7.16071 11.5717 7.28571V7.76786C11.5717 8.01786 11.4736 8.23214 11.2773 8.41071L9.64461 10.2857H11.1435C11.2684 10.2857 11.3665 10.3304 11.4379 10.4196C11.5271 10.4911 11.5717 10.5893 11.5717 10.7143V11.5714C11.5717 11.6964 11.5271 11.7946 11.4379 11.8661C11.3665 11.9554 11.2684 12 11.1435 12H7.71747C7.59257 12 7.4855 11.9554 7.39628 11.8661C7.32491 11.7946 7.28922 11.6964 7.28922 11.5714V11.0893C7.28922 10.8393 7.38736 10.625 7.58364 10.4464L9.21636 8.57143H7.71747C7.59257 8.57143 7.4855 8.53571 7.39628 8.46429C7.32491 8.375 7.28922 8.26786 7.28922 8.14286V7.28571C7.28922 7.16071 7.32491 7.0625 7.39628 6.99107C7.4855 6.90179 7.59257 6.85714 7.71747 6.85714H11.1435ZM11.9732 4.58036C11.9911 4.61607 12 4.66071 12 4.71429C12 4.83929 11.9554 4.94643 11.8662 5.03571C11.7948 5.10714 11.6967 5.14286 11.5717 5.14286H10.9026C10.6885 5.14286 10.5546 5.04464 10.5011 4.84821L10.3673 4.5H8.46691L8.35985 4.84821C8.28848 5.04464 8.15465 5.14286 7.95836 5.14286H7.28922C7.16431 5.14286 7.05725 5.10714 6.96803 5.03571C6.89665 4.94643 6.86097 4.83929 6.86097 4.71429C6.86097 4.66071 6.86989 4.61607 6.88773 4.58036L8.46691 0.294643C8.53829 0.0982143 8.67212 0 8.8684 0H9.99256C10.1888 0 10.3227 0.0982143 10.3941 0.294643L11.9732 4.58036ZM9.00223 3H9.85874L9.43048 1.71429L9.00223 3Z" fill="#8492A6"/>
</svg>
