<svg width="12" height="12" viewBox="0 0 12 12" fill="none" xmlns="http://www.w3.org/2000/svg">
<path d="M0.632563 2.879L1.39862 10.5714H10.5996L11.2168 3.02787L5.99912 5.94917L0.632563 2.879Z" fill="#F2F2F2"/>
<path d="M0.892065 1.42908L5.99877 6.22617L11.1055 1.42908H5.99877H0.892065Z" fill="#F2F2F2"/>
<path d="M10.6005 3.6445V10.5708H11.4342C11.7466 10.5708 12 10.3175 12 10.0051V2.62436L11.0859 2.64927L10.6005 3.6445Z" fill="#3C4858"/>
<path d="M0.000894547 2.62489V10.0056C0.000894547 10.318 0.2543 10.5714 0.566956 10.5714H1.40039V3.64503L0.93886 2.5546L0.000894547 2.62489Z" fill="#3C4858"/>
<path d="M0 1.99483V2.62401L1.3995 3.64415L6 6.99731L10.6005 3.64415L12 2.62401V1.99483C12 1.68248 11.7466 1.42908 11.4342 1.42908H11.1067L6 5.15116L0.893297 1.42908H0.566063C0.253407 1.42908 0 1.68246 0 1.99483Z" fill="#3C4858"/>
<path d="M10.6005 3.6445L12 3.42752V2.62436L10.6005 3.6445Z" fill="#3C4858"/>
</svg>
