<svg width="14" height="12" viewBox="0 0 14 14" fill="none" xmlns="http://www.w3.org/2000/svg">
<path d="M12.5405 6.99782L13.7979 5.76721C14.1727 5.41237 13.9979 4.78177 13.5063 4.66419L11.7932 4.22697L12.2761 2.53125C12.4126 2.04349 11.9527 1.58343 11.4651 1.71993L9.76991 2.20301L9.33285 0.489355C9.21719 0.00539888 8.57953 -0.171597 8.23021 0.197653L7.00001 1.46482L5.76984 0.19768C5.42449 -0.167386 4.78418 -0.000124596 4.6672 0.489383L4.23014 2.20304L2.53496 1.71996C2.04723 1.5834 1.58747 2.04363 1.72392 2.53127L2.20684 4.227L0.493746 4.66422C0.00188579 4.78183 -0.17254 5.41254 0.202125 5.76721L1.45953 6.99782L0.202125 8.22839C-0.172704 8.58323 0.00207725 9.21383 0.493719 9.33141L2.20681 9.76864L1.72389 11.4644C1.58742 11.9521 2.04734 12.4122 2.53493 12.2757L4.23009 11.7926L4.66715 13.5063C4.78853 14.0142 5.42446 14.163 5.76979 13.798L7.00001 12.5401L8.23018 13.798C8.57198 14.1668 9.21421 14.0026 9.33282 13.5063L9.76989 11.7926L11.465 12.2757C11.9527 12.4122 12.4125 11.952 12.2761 11.4644L11.7932 9.76864L13.5063 9.33141C13.9981 9.21378 14.1725 8.5831 13.7978 8.22839L12.5405 6.99782V6.99782Z" fill="blue"/>
</svg>
